<svg xmlns="http://www.w3.org/2000/svg" xml:space="preserve" viewBox="0 0 164.4 113.6"><path fill="#ffd901" d="M139.7 41.3c1.7 10 1.8 22.7-9.3 27.8a21 21 0 0 1-8.3 2c-1.5 0-4.4-.2-5.8-.4-1.8-.2-3.2 3.6-4.2 5 13.7 5 28 3 35.7-9 3.8-6 6.5-19.8-1-24.4-2.2-1.2-4.8-1-7.1-1"/><path fill="#a739ff" d="M115 47h-.7c-9.4 1.5-10.4 11.7-10.7 18.3-.1 2 6.8 12 8.6 10.8 1.5-1 3.8-4.1 4.8-5.3a20 20 0 0 0 5.5-16.8c-.7-3.8-3.5-7.1-7.4-7m-3 9 .4.1c2.2.6 1.4 2.9.9 5-.6 2.3-2.7 6-3 6-.5-.1-2-4.4-1.3-6.7.6-2.1 1.5-4.3 3-4.3"/><path fill="#01f7ff" d="M77.2 21.7C73.6 40.2 55.1 67.8 55 71.3c0 3.8 6.3 8.6 9.5 9.8A355 355 0 0 0 80 49.8l-2.7-11.4zM7.1 91.1c-3.7.1-7.6 2.9-7 8 .7 7 7.3 11.3 13.6 13.2A34 34 0 0 0 50 100.2c-2.6-1.9-9.4-10.3-12-8.5a94 94 0 0 1-8.4 4.6A45 45 0 0 1 13 99.5c1.4-5.7-2.2-8.4-5.9-8.4m1.4 3.7a2.3 2.3 0 0 1 2.3 2.3 2.3 2.3 0 0 1-2.3 2.3 2.3 2.3 0 0 1-2.2-2.3 2.3 2.3 0 0 1 2.2-2.3"/><path fill="#238df3" d="M94.6 0c-3.3.2-6.7 1.6-9.2 3.8-5.2 4.5-7.7 13.2-8.6 19.8A75 75 0 0 0 79.4 49c3.5 15.3 9.6 31.6 19.8 43.8a48 48 0 0 0 47.2 14.8c9.3-2.7 21.6-10 17-21.5-2.8-7.4-13.3-8.9-18.6-3.1-2.4 2.5-2.3 5.9-2.3 9a47 47 0 0 1-17.3-7.3 66 66 0 0 1-18.9-15.2A89 89 0 0 1 90 19c10.3 4.5 20.9-5.3 13.4-15.1A10 10 0 0 0 94.6 0m.1 9c1.8 0 3.4 1.5 3.4 3.5 0 2.7-1.6 3.6-3.6 3.6-1.8 0-3.5-.9-3.5-3.8 0-2 1.8-3.2 3.7-3.2M151 85c2.6 0 4.2 1.7 4.2 4.1 0 2.5-1.6 4.4-4.2 4.4-2.5 0-4.6-2-4.6-4.4s2.1-4.1 4.6-4.1"/><path fill="#fb39ff" d="m97.8 90.8-4-5.8C82 88.2 64 84.8 56.5 74.4a19 19 0 0 1-4.3-9.1c-.3-3.6.7-7.3 3.5-9.7 2.4-2 5.8-2.6 7.5.4l3.3-6c-3-3.1-11.3-2.7-14-2a29 29 0 0 0-19 17c-6.7 17.6 5.8 35.2 25 37.5a57 57 0 0 0 39.3-11.7"/></svg>